<?xml version="1.0" encoding="UTF-8" standalone="no"?>
<!-- Created with Inkscape (http://www.inkscape.org/) -->

<svg
   version="1.1"
   id="svg1"
   width="1504.8"
   height="872.54309"
   viewBox="0 0 1504.8 872.54309"
   xmlns="http://www.w3.org/2000/svg"
   xmlns:svg="http://www.w3.org/2000/svg">
  <defs
     id="defs1" />
  <g
     id="g1"
     transform="translate(-591.84,-907.6801)">
    <path
       style="display:inline;fill:#000000"
       d="m 1503.36,1402.2126 c 0,-0.1911 14.7888,-14.5551 32.8639,-31.92 18.0752,-17.3649 45.8364,-44.3527 61.6916,-59.9728 l 28.8277,-28.4002 9.5884,-0.6348 c 5.2736,-0.3492 46.7869,-0.6371 92.2516,-0.6398 h 82.6633 l 0.6167,-5.9008 c 0.3393,-3.2455 0.6168,-18.5186 0.6168,-33.9404 v -28.0395 l -12.72,-0.6093 c -6.996,-0.335 -46.5324,-0.8977 -87.8587,-1.2503 l -75.1388,-0.6412 -26.1412,-25.4814 c -14.3777,-14.0148 -38.3453,-37.5134 -53.2613,-52.2191 l -27.12,-26.7376 0.114,-42.9102 0.114,-42.9102 14.5352,-13.92 c 67.2153,-64.37019 97.5941,-92.55615 102.4749,-95.07774 3.2106,-1.65872 6.2007,-1.79928 38.88,-1.82771 19.471,-0.0169 85.8595,-0.3219 147.5299,-0.67769 l 112.128,-0.64689 -27.168,26.84485 c -14.9424,14.76467 -42.5781,41.83442 -61.4128,60.15502 L 1823.1905,1028.16 H 1737.1952 1651.2 v 33.2076 33.2075 l 86.16,-0.2707 c 70.5414,-0.2217 86.5951,-0.038 88.56,1.0147 3.0403,1.6283 19.8472,16.4209 40.2905,35.4616 29.8262,27.7799 52.3641,48.5759 59.7862,55.1658 12.285,10.9074 11.2833,5.8992 11.2833,56.4146 v 43.5746 l -21.84,21.6764 c -12.012,11.9221 -32.8463,32.0066 -46.2984,44.6322 -13.4521,12.6256 -30.6102,29.1117 -38.1291,36.6357 l -13.6707,13.68 h -156.9909 c -86.345,0 -156.9909,-0.1563 -156.9909,-0.3474 z"
       id="path56" />
    <path
       style="display:inline;fill:#000000"
       d="m 848.38718,1390.8 c -6.95589,-6.468 -24.5406,-23.3904 -39.07713,-37.6052 -14.53653,-14.2149 -34.20605,-33.1839 -43.71005,-42.1533 -18.536,-17.4933 -21.35171,-20.7168 -22.47866,-25.734 -0.98001,-4.3631 -1.35756,-177.5517 -0.49134,-225.3837 l 0.69351,-38.2954 30.81825,-29.20905 c 16.95003,-16.065 39.02476,-36.7354 49.05496,-45.93422 10.0302,-9.19882 22.3422,-20.65542 27.36,-25.45911 5.0178,-4.80369 10.63528,-9.55569 12.48328,-10.56 3.25209,-1.76738 8.31605,-1.84144 157.6801,-2.30602 84.876,-0.264 154.32,-0.41501 154.32,-0.33559 -10e-5,0.21481 -69.8598,69.34693 -97.1303,96.11869 l -23.6901,23.2569 h -57.03254 c -31.36788,0 -74.5993,0.2863 -96.06983,0.6361 l -39.03733,0.6362 v 125.9278 125.9278 l 38.16,0.6338 c 20.988,0.3486 63.74751,0.3482 95.02113,-10e-4 l 56.86117,-0.6349 5.5388,5.165 c 8.9042,8.3031 110.6726,106.7959 115.9028,112.1722 l 4.7639,4.897 H 1019.681 861.03427 Z"
       id="path55" />
    <path
       style="display:inline;fill:#000000"
       d="m 1217.7013,1363.0363 c -23.1997,-22.7707 -50.0653,-48.9738 -59.7013,-58.2291 l -17.52,-16.828 v -133.6754 -133.6754 l 42.9422,-39.67414 c 23.6182,-21.82079 50.484,-46.85813 59.7018,-55.63853 l 16.7596,-15.96437 95.0982,-0.64068 c 52.304,-0.35238 120.8069,-0.72841 152.2287,-0.83563 l 57.1305,-0.19495 -38.8905,38.45207 c -52.9136,52.31709 -81.1677,79.43063 -84.0317,80.63963 -1.6049,0.6775 -31.4484,1.0983 -90.3412,1.2737 -48.3695,0.1441 -88.5913,0.5101 -89.3817,0.8134 -1.1108,0.4263 -1.303,1.5297 -0.8465,4.8603 0.3248,2.3699 0.5906,17.0621 0.5906,32.6494 v 28.3405 l 49.7323,-0.5852 49.7322,-0.5852 58.3792,58.3851 c 32.1086,32.1119 58.0051,58.599 57.5478,58.8602 -0.4573,0.2613 -48.7804,0.5668 -107.3846,0.6787 -58.6043,0.112 -106.7723,0.4228 -107.04,0.6905 -0.2678,0.2678 -0.7625,43.4584 -1.0993,95.9793 -0.3368,52.5208 -0.7952,95.6752 -1.0187,95.8987 -0.2234,0.2234 -19.3879,-18.2243 -42.5876,-40.9949 z"
       id="path54" />
    <path
       style="display:inline;fill:#000000"
       d="m 1969.6949,1569.3601 c -0.1402,-31.284 -0.1169,-57.852 0.052,-59.04 0.3007,-2.1174 0.5606,-2.16 13.1855,-2.16 h 12.8787 l 0.2545,27.8159 0.2545,27.8158 31.68,-27.7912 31.68,-27.7911 17.52,-0.025 c 9.636,-0.014 17.52,0.1501 17.52,0.3638 0,0.2136 -13.9181,12.2016 -30.9291,26.64 -17.0109,14.4383 -31.9827,27.1515 -33.2706,28.2515 l -2.3415,2 34.2306,30.0152 c 18.8268,16.5083 34.2306,30.1883 34.2306,30.4 0,0.2116 -7.9701,0.3848 -17.7114,0.3848 h -17.7115 l -32.4485,-28.4387 -32.4486,-28.4387 -0.2543,28.4387 -0.2543,28.4387 h -12.9308 -12.9307 z"
       id="path53" />
    <path
       id="path51"
       style="display:inline;fill:#000000"
       d="m 1782.72,1625.6554 c 0,-0.5777 11.9302,-19.6944 53.5548,-85.8153 8.1435,-12.936 15.8661,-24.928 17.1614,-26.6489 3.7261,-4.9504 8.6574,-6.9511 17.1332,-6.9511 8.1375,0 10.908,1.0586 15.4889,5.9181 1.6601,1.761 17.4609,26.3139 35.1128,54.5619 17.652,28.248 33.262,53.2068 34.6888,55.4639 l 2.5944,4.1039 -15.5761,-0.2639 -15.5761,-0.2639 -8.2111,-13.1899 -8.211,-13.1898 -40.9012,-0.01 -40.9012,-0.01 -8.1531,13.2 -8.1531,13.2 -15.0257,0.2644 c -8.2641,0.1454 -15.0257,-0.021 -15.0257,-0.3691 z m 115.2,-46.9746 c 0,-0.2856 -5.85,-10.0171 -12.9999,-21.6255 -7.15,-11.6085 -13.2442,-21.7428 -13.5427,-22.5208 -0.8901,-2.3193 -1.6867,-1.6882 -5.1746,4.0993 -1.8275,3.0326 -7.9668,13.0441 -13.6428,22.2479 -5.676,9.2038 -10.32,17.0906 -10.32,17.5263 0,0.4356 12.528,0.7921 27.84,0.7921 15.312,0 27.84,-0.2337 27.84,-0.5193 z" />
    <path
       style="display:inline;fill:#000000"
       d="m 1680.48,1625.6204 c -17.039,-1.9639 -26.8598,-8.2213 -30.8394,-19.6497 -1.6261,-4.6695 -1.8006,-8.381 -1.8006,-38.2907 0,-38.0321 0.4515,-41.0476 7.2507,-48.4238 7.9226,-8.595 18.8876,-11.0962 48.6441,-11.0962 h 17.5452 v 10.9262 10.9262 l -18.48,0.4263 c -26.65,0.6148 -28.4755,1.7111 -29.3066,17.6 l -0.475,9.0813 h 50.0508 50.0508 l 0.074,8.4 c 0.04,4.62 0.2181,9.156 0.395,10.08 0.303,1.5828 -2.5973,1.68 -50.108,1.68 h -50.4295 l 0.3984,9.1083 c 0.317,7.2502 0.7987,9.6494 2.3608,11.76 4.1198,5.5666 3.5586,5.5047 52.9098,5.8386 l 45.36,0.3068 v 10.9732 10.9731 l -45.36,-0.1438 c -24.948,-0.079 -46.656,-0.2932 -48.24,-0.4758 z"
       id="path50" />
    <path
       id="path48"
       style="display:inline;fill:#000000"
       d="m 1493.5349,1569.36 c -0.1402,-31.284 -0.1131,-57.8804 0.06,-59.1031 l 0.3151,-2.223 54.8849,0.3809 c 44.8187,0.3111 55.8534,0.6442 60.165,1.8163 18.4565,5.0172 23.8822,14.8842 22.8284,41.5149 -0.5481,13.8489 -2.5565,19.5765 -8.9219,25.444 -7.0663,6.5135 -13.6139,8.0073 -37.28,8.5056 -11.0074,0.2318 -19.6474,0.7643 -19.2,1.1835 0.7452,0.6981 41.5502,24.3742 59.1335,34.3108 4.092,2.3124 7.44,4.3947 7.44,4.6273 0,0.2325 -10.044,0.4201 -22.32,0.4168 l -22.32,-0.01 -33.9505,-21.114 c -18.6728,-11.6127 -34.1168,-21.114 -34.32,-21.114 -0.2032,0 -0.3695,9.504 -0.3695,21.12 v 21.12 h -12.9451 -12.945 z m 105.0304,-4.7498 c 5.5935,-2.4908 6.8613,-5.3138 6.9542,-15.4852 0.098,-10.7038 -1.1837,-14.2569 -6.0081,-16.6576 -3.1838,-1.5844 -7.0717,-1.7762 -41.6714,-2.0558 l -38.16,-0.3084 v 18.3937 18.3938 l 37.68,-0.3554 c 32.2756,-0.3043 38.1856,-0.5805 41.2053,-1.9251 z" />
    <path
       style="display:inline;fill:#000000"
       d="m 1354.75,1578.9375 0.29,-47.3024 3.1265,-6.3486 c 6.6989,-13.6025 17.3592,-17.1265 51.8083,-17.1265 h 16.5852 v 11.4452 11.4452 l -18,0.3148 c -21.0188,0.3676 -23.1775,1.0287 -26.2832,8.0497 -1.471,3.3254 -1.8148,5.9475 -1.5958,12.1718 l 0.279,7.9333 h 49.2001 49.2001 l -10e-5,11.28 -1e-4,11.28 h -49.44 -49.44 v 22.08 22.08 h -13.01 -13.01 z"
       id="path47" />
    <path
       id="path45"
       style="display:inline;fill:#000000"
       d="m 1198.08,1567.2 v -59.04 l 49.68,0.01 c 27.324,0 53.4546,0.4403 58.0679,0.9689 15.3985,1.7644 23.087,6.4126 27.7604,16.7832 1.829,4.0587 2.2228,6.8871 2.5499,18.3143 0.232,8.1062 -0.058,15.6574 -0.7251,18.8699 -2.164,10.424 -9.1705,17.4723 -20.6044,20.7272 -3.1597,0.8995 -12.0186,1.5998 -25.0487,1.9802 l -20.16,0.5884 34.1535,19.68 34.1536,19.68 -22.4499,0.2575 -22.4498,0.2575 -26.5837,-16.5162 C 1230.5844,1587.4921 1224.8887,1584 1224.4095,1584 c -0.2252,0 -0.4095,9.504 -0.4095,21.12 v 21.12 h -12.96 -12.96 z m 98.8133,-1.4651 c 10.7348,-1.3932 13.5771,-5.1472 13.4276,-17.7349 -0.1093,-9.1949 -1.6816,-13.1074 -6.1728,-15.36 -3.6023,-1.8068 -6.0785,-1.9377 -41.9881,-2.2198 l -38.16,-0.2997 v 18.2997 18.2998 l 32.88,-0.03 c 18.084,-0.016 36.09,-0.4463 40.0133,-0.9555 z" />
    <path
       style="display:inline;fill:#000000"
       d="m 1088.16,1625.6104 c -21.311,-2.5304 -29.1837,-8.5869 -32.6948,-25.1522 -1.6487,-7.7786 -1.9113,-54.8862 -0.3593,-64.4524 1.8503,-11.4044 6.1674,-18.3597 13.8541,-22.3201 7.9152,-4.0782 12.5969,-4.7578 36.24,-5.2609 l 22.8,-0.4851 v 11.0364 11.0363 l -18.48,0.4047 c -26.3147,0.5763 -28.6358,2.0196 -28.9022,17.9729 l -0.1378,8.25 50.16,0.2486 50.16,0.2485 v 10.0629 10.0629 l -50.16,0.2485 -50.16,0.2486 0.1378,8.25 c 0.1659,9.9379 1.8042,13.76 6.886,16.0656 3.1125,1.4121 8.8854,1.6362 48.1762,1.87 l 44.64,0.2656 0.2705,11.0144 0.2704,11.0144 -44.9104,-0.1438 c -24.7008,-0.079 -46.2065,-0.2978 -47.7905,-0.4858 z"
       id="path44" />
    <path
       id="path41"
       style="display:inline;fill:#000000"
       d="m 900.48,1567.145 v -59.0951 l 57.36,0.336 c 51.4986,0.3017 57.8764,0.5077 62.4135,2.0163 10.5235,3.4989 15.4774,10.8437 16.3095,24.1806 1.0262,16.4485 -1.1763,24.175 -8.2502,28.942 l -3.1614,2.1305 3.8914,1.9853 c 6.7067,3.4215 8.1358,7.5129 8.5504,24.4793 0.3965,16.2241 -0.3272,19.9492 -4.884,25.1391 -7.3148,8.3311 -13.0327,8.981 -79.01867,8.981 H 900.48 Z m 110.5673,34.3951 c 2.5915,-2.5924 3.5186,-11.9419 1.8125,-18.2779 -2.051,-7.6169 -0.8421,-7.4222 -46.09599,-7.4222 H 926.88 l -0.26583,14.1897 -0.26584,14.1897 41.27996,-0.2697 c 41.24341,-0.2695 41.28181,-0.2716 43.41901,-2.4096 z m -6.4073,-45.3556 c 6.2213,-1.4415 7.4323,-3.7863 7.0475,-13.6457 -0.2368,-6.069 -0.7518,-8.8163 -1.86,-9.9238 -2.6655,-2.6637 -13.79123,-3.3716 -48.8675,-3.1096 l -34.08,0.2546 -0.27009,12.4292 c -0.14856,6.8361 -0.0541,12.9921 0.20987,13.68 0.38301,0.9981 7.90357,1.2462 37.23009,1.2279 20.21257,-0.013 38.47813,-0.4233 40.59013,-0.9126 z" />
    <path
       style="display:inline;fill:#000000"
       d="m 793.92,1598.5355 v -27.7045 l -31.44,-28.2785 c -17.292,-15.5532 -32.952,-29.6415 -34.8,-31.3074 l -3.36,-3.0288 17.9181,-0.028 17.91809,-0.028 22.88191,20.2576 c 12.58504,11.1417 23.3782,20.4591 23.98478,20.7054 0.60659,0.2463 11.83859,-8.8643 24.96,-20.2458 l 23.85712,-20.6937 16.61666,-0.012 c 9.13916,-0.01 16.39848,0.3413 16.13182,0.7728 -0.26666,0.4314 -15.8394,14.5794 -34.6061,31.44 l -34.12126,30.6555 -0.0106,27.6 -0.0106,27.6 h -12.96 -12.96 z"
       id="path40" />
    <path
       style="display:inline;fill:#000000"
       d="m 621.27479,1625.2071 c -14.20976,-1.8434 -21.4757,-6.2795 -26.28458,-16.0477 l -3.15021,-6.399 v -35.5402 -35.5402 l 2.50628,-5.3439 c 4.85632,-10.3547 12.34677,-15.082 27.16316,-17.1428 4.42135,-0.6149 25.2814,-1.0333 51.52003,-1.0333 H 717.12 v 11.4844 11.4844 l -45.53072,0.2756 c -44.3156,0.2682 -45.60302,0.3287 -48.24,2.2638 -5.89878,4.3289 -6.15385,5.8517 -5.85773,34.9718 0.30264,29.7626 0.3977,30.1788 7.54495,33.0386 3.27737,1.3113 9.89675,1.5214 47.94293,1.5214 H 717.12 v 11.52 11.52 l -44.88,-0.1217 c -24.684,-0.067 -47.61834,-0.477 -50.96521,-0.9112 z"
       id="path39" />
    <path
       style="display:inline;fill:#000000"
       d="m 1705.2084,1777.9061 c -10.4871,-1.5306 -17.1636,-6.8611 -19.5106,-15.5771 -0.6301,-2.34 -0.9037,-12.8032 -0.718,-27.455 0.283,-22.3166 0.4225,-23.9027 2.4334,-27.6633 4.6541,-8.7034 10.6831,-10.8097 33.1468,-11.5803 l 16.08,-0.5516 v 8.2314 8.2315 l -14.376,0.3091 c -17.7729,0.3823 -18.4645,0.7939 -19.0607,11.3442 l -0.38,6.725 h 35.1484 35.1483 v 7.2 7.2 h -35.1483 -35.1484 l 0.3863,6.8357 c 0.3409,6.0336 0.6979,7.1038 3.0419,9.12 l 2.6556,2.2843 h 32.5864 32.5865 v 8.16 8.16 l -31.92,-0.1198 c -17.556,-0.066 -34.1842,-0.4502 -36.9516,-0.8541 z"
       id="path38" />
    <path
       id="path36"
       style="display:inline;fill:#000000"
       d="m 1576.32,1737.0227 v -41.8574 l 39.12,0.4316 c 33.1552,0.3658 39.8815,0.677 44.1145,2.041 11.028,3.5537 14.013,9.0183 14.0302,25.6853 0.01,9.8847 -0.2539,11.6988 -2.3066,15.84 -1.7818,3.5949 -3.4085,5.2648 -7.0315,7.2186 -6.0193,3.2461 -9.8712,3.8398 -24.3266,3.7496 -6.468,-0.04 -11.7545,0.2556 -11.7479,0.6576 0.01,0.4021 9.7338,6.3046 21.6159,13.1168 11.882,6.8121 22.3526,12.9544 23.2679,13.6494 1.3981,1.0618 -0.8264,1.2686 -13.919,1.2943 l -15.5831,0.031 -6.4969,-3.9753 c -3.5733,-2.1864 -14.3603,-8.8824 -23.9711,-14.88 -9.6108,-5.9976 -17.7108,-10.9047 -18,-10.9047 -0.2892,0 -0.5258,6.696 -0.5258,14.88 v 14.88 h -9.12 -9.12 z m 76.4044,-3.5562 c 1.9921,-2.3173 2.3156,-3.6771 2.3156,-9.7337 0,-5.4992 -0.4014,-7.5361 -1.834,-9.3064 l -1.8341,-2.2664 -28.4059,-0.281 -28.406,-0.2809 v 12.5868 12.5869 l 27.9244,-0.3059 27.9244,-0.3059 z" />
    <path
       id="path34"
       style="display:inline;fill:#000000"
       d="m 1446.8147,1775.3124 c 2.2515,-3.6986 21.5894,-34.5731 38.8411,-62.0132 6.2023,-9.8652 10.5923,-15.8317 12.5375,-17.04 4.0856,-2.5376 12.9583,-2.5401 17.0606,0 2.1739,1.3436 9.7432,12.6258 27.4733,40.9497 13.4601,21.5024 24.6125,39.6759 24.7832,40.3856 0.2454,1.0201 -1.866,1.2903 -10.0815,1.2903 h -10.3918 l -5.8504,-9.36 -5.8504,-9.36 -28.7868,-0.2538 -28.7867,-0.2539 -5.7354,9.3739 -5.7354,9.3738 -10.8443,0.2724 -10.8443,0.2723 z m 78.6253,-30.6388 c 0,-1.0396 -18.4795,-31.0756 -19.0962,-31.0384 -0.5123,0.031 -18.3136,28.6928 -19.1438,30.8235 -0.176,0.4517 8.356,0.8213 18.96,0.8213 10.604,0 19.28,-0.2729 19.28,-0.6064 z" />
    <path
       style="display:inline;fill:#000000"
       d="m 1245.12,1745.28 v -33.6 h -17.28 -17.28 v -8.16 -8.16 h 43.68 43.68 v 8.1378 8.1379 l -17.04,0.2621 -17.04,0.2622 -0.2524,33.36 -0.2525,33.36 h -9.1075 -9.1076 z"
       id="path33" />
    <path
       style="display:inline;fill:#000000"
       d="m 1122.424,1745.04 c 0.2873,-32.8409 0.359,-33.9578 2.4292,-37.8293 4.6024,-8.6066 10.6517,-10.7485 32.6668,-11.566 l 15.6,-0.5793 v 8.3073 8.3073 h -11.5508 c -17.6008,0 -21.0892,2.4562 -21.0892,14.8492 v 5.3108 h 34.56 34.56 v 7.68 7.68 h -34.56 -34.56 v 15.84 15.84 h -9.176 -9.1761 z"
       id="path32" />
    <path
       id="path30"
       style="display:inline;fill:#000000"
       d="m 1035.2165,1777.9136 c -10.2418,-1.4159 -16.8808,-6.179 -19.694,-14.1292 -1.7646,-4.9867 -1.8101,-47.0062 -0.057,-52.7807 4.0317,-13.2817 14.185,-16.2504 52.5348,-15.3606 27.9019,0.6474 33.3472,2.3583 38.0776,11.9636 2.1756,4.4177 2.2424,5.2967 2.2424,29.5133 0,24.2166 -0.067,25.0956 -2.2424,29.5133 -2.5548,5.1877 -6.0096,7.9899 -12.4671,10.1124 -5.2118,1.713 -48.2281,2.5734 -58.394,1.1679 z m 48.9908,-16.2708 c 5.2731,-2.0048 5.8727,-4.5042 5.8727,-24.482 0,-20.2937 -0.3753,-21.8528 -5.8064,-24.1221 -4.6505,-1.943 -41.3367,-1.943 -45.9872,0 -5.3973,2.2552 -5.7769,3.8359 -5.7924,24.1217 -0.012,16.0319 0.1995,18.6065 1.722,20.9316 0.9547,1.4582 2.6827,3.0327 3.84,3.4988 2.8625,1.153 43.136,1.1985 46.1513,0.052 z" />
    <path
       style="display:inline;fill:#000000"
       d="m 913.92,1770.781 v -8.221 h 33.86639 c 39.6589,0 38.13361,0.3404 38.13361,-8.511 0,-9.6621 1.54196,-9.1763 -30.88099,-9.729 -27.81781,-0.4742 -28.21136,-0.5091 -32.47901,-2.88 -6.57615,-3.6534 -8.13635,-7.6098 -8.14941,-20.6656 -0.009,-9.4631 0.24791,-11.088 2.42703,-15.3224 1.8713,-3.6363 3.50389,-5.2855 7.0272,-7.0986 4.26576,-2.1953 5.83792,-2.3932 22.28238,-2.8053 l 17.6928,-0.4433 v 8.2876 8.2876 h -14.21652 c -16.94032,0 -17.569,0.2691 -18.1924,7.7865 -0.34813,4.198 -0.0598,5.6525 1.50323,7.5839 l 1.93399,2.3896 28.16585,0.4821 c 23.70729,0.4058 28.6221,0.7321 31.04812,2.0617 6.93403,3.8002 9.13223,9.0477 9.07563,21.6654 -0.063,14.0393 -2.3075,18.8899 -10.5179,22.7302 -4.11903,1.9266 -6.05058,2.0346 -41.52,2.3216 l -37.2,0.301 z"
       id="path29" />
    <path
       style="display:inline;fill:#000000"
       d="m 1342.3259,1779.8404 c -3.9676,-0.9116 -5.7187,-2.3898 -7.8847,-6.6562 -1.2926,-2.5462 -29.309,-68.7788 -32.412,-76.6242 -0.3621,-0.9155 1.9965,-1.1998 9.9481,-1.1989 l 10.4227,10e-4 8.5857,21.359 c 4.7221,11.7474 10.1909,25.2189 12.1528,29.9367 l 3.5671,8.5779 1.4122,-3.2979 c 2.8857,-6.7387 21.6612,-47.738 23.6185,-51.5746 1.1165,-2.1884 2.9718,-4.483 4.1229,-5.0991 3.3256,-1.7798 11.1347,-1.3929 13.9245,0.69 1.7238,1.287 5.9883,9.9579 14.7568,30.0045 6.7828,15.5069 12.4843,28.3462 12.67,28.5319 0.1857,0.1857 5.9237,-13.0427 12.7513,-29.3965 l 12.4136,-29.734 h 9.8523 c 5.4188,0 9.8523,0.3819 9.8523,0.8487 0,0.4668 -7.884,18.6727 -17.52,40.4577 -12.9757,29.3353 -18.169,40.0932 -20.0223,41.4759 -3.461,2.5823 -10.6767,2.6222 -14.1042,0.078 -1.8941,-1.4059 -5.9592,-9.3292 -15.0735,-29.3799 -6.864,-15.1001 -12.7363,-27.6989 -13.0496,-27.9973 -0.3133,-0.2983 -6.5474,12.016 -13.8535,27.3653 -9.3179,19.5758 -14.0202,28.4219 -15.7504,29.6297 -3.2194,2.2474 -6.532,2.8864 -10.3806,2.0022 z"
       id="path1" />
  </g>
</svg>
