<?xml version="1.0" encoding="UTF-8" standalone="no"?>
<!-- Created with Inkscape (http://www.inkscape.org/) -->

<svg
   version="1.1"
   id="svg1"
   width="1282.9495"
   height="581.22235"
   viewBox="0 0 1282.9495 581.22235"
   xmlns="http://www.w3.org/2000/svg"
   xmlns:svg="http://www.w3.org/2000/svg">
  <defs
     id="defs1" />
  <g
     id="g1"
     transform="translate(-702.79169,-865.88129)">
    <rect
       style="fill:#6ca5ac;fill-opacity:1;stroke-width:1.11687"
       id="rect1"
       width="1282.9495"
       height="581.22235"
       x="702.79169"
       y="865.88129" />
    <path
       style="display:inline;fill:#ffffff;fill-opacity:1"
       d="m 1503.36,1402.2126 c 0,-0.1911 14.7888,-14.5551 32.8639,-31.92 18.0752,-17.3649 45.8364,-44.3527 61.6916,-59.9728 l 28.8277,-28.4002 9.5884,-0.6348 c 5.2736,-0.3492 46.7869,-0.6371 92.2516,-0.6398 h 82.6633 l 0.6167,-5.9008 c 0.3393,-3.2455 0.6168,-18.5186 0.6168,-33.9404 v -28.0395 l -12.72,-0.6093 c -6.996,-0.335 -46.5324,-0.8977 -87.8587,-1.2503 l -75.1388,-0.6412 -26.1412,-25.4814 c -14.3777,-14.0148 -38.3453,-37.5134 -53.2613,-52.2191 l -27.12,-26.7376 0.114,-42.9102 0.114,-42.9102 14.5352,-13.92 c 67.2153,-64.37019 97.5941,-92.55615 102.4749,-95.07774 3.2106,-1.65872 6.2007,-1.79928 38.88,-1.82771 19.471,-0.0169 85.8595,-0.3219 147.5299,-0.67769 l 112.128,-0.64689 -27.168,26.84485 c -14.9424,14.76467 -42.5781,41.83442 -61.4128,60.15502 L 1823.1905,1028.16 H 1737.1952 1651.2 v 33.2076 33.2075 l 86.16,-0.2707 c 70.5414,-0.2217 86.5951,-0.038 88.56,1.0147 3.0403,1.6283 19.8472,16.4209 40.2905,35.4616 29.8262,27.7799 52.3641,48.5759 59.7862,55.1658 12.285,10.9074 11.2833,5.8992 11.2833,56.4146 v 43.5746 l -21.84,21.6764 c -12.012,11.9221 -32.8463,32.0066 -46.2984,44.6322 -13.4521,12.6256 -30.6102,29.1117 -38.1291,36.6357 l -13.6707,13.68 h -156.9909 c -86.345,0 -156.9909,-0.1563 -156.9909,-0.3474 z"
       id="path56" />
    <path
       style="display:inline;fill:#ffffff;fill-opacity:1"
       d="m 848.38718,1390.8 c -6.95589,-6.468 -24.5406,-23.3904 -39.07713,-37.6052 -14.53653,-14.2149 -34.20605,-33.1839 -43.71005,-42.1533 -18.536,-17.4933 -21.35171,-20.7168 -22.47866,-25.734 -0.98001,-4.3631 -1.35756,-177.5517 -0.49134,-225.3837 l 0.69351,-38.2954 30.81825,-29.20905 c 16.95003,-16.065 39.02476,-36.7354 49.05496,-45.93422 10.0302,-9.19882 22.3422,-20.65542 27.36,-25.45911 5.0178,-4.80369 10.63528,-9.55569 12.48328,-10.56 3.25209,-1.76738 8.31605,-1.84144 157.6801,-2.30602 84.876,-0.264 154.32,-0.41501 154.32,-0.33559 -10e-5,0.21481 -69.8598,69.34693 -97.1303,96.11869 l -23.6901,23.2569 h -57.03254 c -31.36788,0 -74.5993,0.2863 -96.06983,0.6361 l -39.03733,0.6362 v 125.9278 125.9278 l 38.16,0.6338 c 20.988,0.3486 63.74751,0.3482 95.02113,-10e-4 l 56.86117,-0.6349 5.5388,5.165 c 8.9042,8.3031 110.6726,106.7959 115.9028,112.1722 l 4.7639,4.897 H 1019.681 861.03427 Z"
       id="path55" />
    <path
       style="display:inline;fill:#ffffff;fill-opacity:1"
       d="m 1217.7013,1363.0363 c -23.1997,-22.7707 -50.0653,-48.9738 -59.7013,-58.2291 l -17.52,-16.828 v -133.6754 -133.6754 l 42.9422,-39.67414 c 23.6182,-21.82079 50.484,-46.85813 59.7018,-55.63853 l 16.7596,-15.96437 95.0982,-0.64068 c 52.304,-0.35238 120.8069,-0.72841 152.2287,-0.83563 l 57.1305,-0.19495 -38.8905,38.45207 c -52.9136,52.31709 -81.1677,79.43063 -84.0317,80.63963 -1.6049,0.6775 -31.4484,1.0983 -90.3412,1.2737 -48.3695,0.1441 -88.5913,0.5101 -89.3817,0.8134 -1.1108,0.4263 -1.303,1.5297 -0.8465,4.8603 0.3248,2.3699 0.5906,17.0621 0.5906,32.6494 v 28.3405 l 49.7323,-0.5852 49.7322,-0.5852 58.3792,58.3851 c 32.1086,32.1119 58.0051,58.599 57.5478,58.8602 -0.4573,0.2613 -48.7804,0.5668 -107.3846,0.6787 -58.6043,0.112 -106.7723,0.4228 -107.04,0.6905 -0.2678,0.2678 -0.7625,43.4584 -1.0993,95.9793 -0.3368,52.5208 -0.7952,95.6752 -1.0187,95.8987 -0.2234,0.2234 -19.3879,-18.2243 -42.5876,-40.9949 z"
       id="path54" />
  </g>
</svg>
